<svg version="1.0" xmlns="http://www.w3.org/2000/svg" width="479.000000pt" height="348.000000pt" viewBox="0 0 479.000000 348.000000" preserveAspectRatio="xMidYMid meet">

<g transform="translate(0.000000,348.000000) scale(0.100000,-0.100000)" fill="#383838" stroke="none">
<path d="M160 3282 l0 -48 98 -12 c129 -15 195 -37 240 -82 42 -40 58 -83 72 -192 13 -101 13 -2227 0 -2341 -22 -187 -79 -238 -305 -270 l-90 -13 0 -45 0 -44 607 -3 c676 -2 618 -9 610 66 -4 29 -7 32 -37 32 -61 0 -210 31 -261 54 -60 28 -96 71 -120 146 -15 48 -18 108 -22 464 l-4 409 123 123 c68 68 127 124 131 124 3 0 36 -42 72 -92 36 -51 98 -138 139 -193 67 -91 288 -393 681 -932 l148 -203 359 0 360 0 -3 47 -3 46 -90 22 c-151 37 -244 94 -398 244 -109 105 -335 396 -597 767 -252 356 -392 557 -396 567 -7 19 973 998 1098 1097 210 168 250 184 453 184 126 0 163 -3 230 -22 198 -56 336 -164 414 -324 66 -133 76 -187 76 -388 0 -155 -3 -183 -23 -250 -37 -118 -89 -207 -167 -286 -154 -157 -313 -214 -596 -214 l-109 0 0 -60 0 -60 46 0 c78 0 187 -21 241 -47 73 -34 123 -94 243 -294 256 -428 432 -689 543 -806 167 -175 341 -245 650 -260 l137 -6 2 31 c1 18 2 40 2 49 1 11 -17 24 -55 39 -157 60 -325 227 -562 555 -161 224 -392 586 -506 791 l-42 77 73 37 c284 143 452 330 519 580 31 115 31 298 1 413 -77 285 -273 462 -587 530 -167 37 -302 42 -995 39 l-665 -3 0 -45 0 -45 55 -6 c68 -8 85 -15 132 -51 55 -43 88 -117 88 -198 0 -132 6 -124 -633 -770 -314 -316 -574 -576 -578 -578 -13 -5 -11 1194 1 1303 24 205 95 265 343 290 l67 7 0 49 0 49 -605 0 -605 0 0 -48z" fill="#383838"/>
</g>
</svg>